<svg baseProfile="full" height="250" id="myUID" version="1.1" width="1400" xmlns="http://www.w3.org/2000/svg" xmlns:ev="http://www.w3.org/2001/xml-events" xmlns:xlink="http://www.w3.org/1999/xlink"><defs><style type="text/css"><![CDATA[.background path {fill: #808080; fill-opacity: 0}.background path:nth-child(odd) {fill-opacity: .1}.x-regions rect {fill: yellow; stroke: black; opacity: 0.5}.axes {font-size: 14px}.x-axis .tick .lab {font-weight: bold; dominant-baseline: hanging}.axes, .tree {font-size: 14px; text-anchor: middle}.axes line, .edge {stroke: black; fill: none}.axes .ax-skip {stroke-dasharray: 4}.y-axis .grid {stroke: #FAFAFA}.node > .sym {fill: black; stroke: none}.site > .sym {stroke: black}.mut text {fill: red; font-style: italic}.mut.extra text {fill: hotpink}.mut line {fill: none; stroke: none}.mut .sym {fill: none; stroke: red}.mut.extra .sym {stroke: hotpink}.node .mut .sym {stroke-width: 1.5px}.tree text, .tree-sequence text {dominant-baseline: central}.plotbox .lab.lft {text-anchor: end}.plotbox .lab.rgt {text-anchor: start}.polytomy line {stroke: black; stroke-dasharray: 1px, 1px}.polytomy text {paint-order:stroke;stroke-width:0.3em;stroke:white}
.node:not(.leaf) > .sym, .node:not(.leaf) > .lab {display: none}
#myUID .background * {fill: #6666FF}
.edge {stroke: darkblue; stroke-width: 4px;}
]]></style></defs><g class="tree-sequence"><g class="background"><path d="M56.8,0 l112.32,0 l0,188.2 l-59.9227,25 l0,5 l-52.3973,0 l0,-5 l0,-25 l0,-188.2z"/><path d="M169.12,0 l112.32,0 l0,188.2 l-132.998,25 l0,5 l-39.2446,0 l0,-5 l59.923,-25 l0,-188.2z"/><path d="M281.44,0 l112.32,0 l0,188.2 l92.4731,25 l0,5 l-337.791,0 l0,-5 l132.998,-25 l0,-188.2z"/><path d="M393.76,0 l112.32,0 l0,188.2 l54.8683,25 l0,5 l-74.7153,0 l0,-5 l-92.473,-25 l0,-188.2z"/><path d="M506.08,0 l112.32,0 l0,188.2 l39.2446,25 l0,5 l-96.6963,0 l0,-5 l-54.868,-25 l0,-188.2z"/><path d="M618.4,0 l112.32,0 l0,188.2 l-49.3309,25 l0,5 l-23.7444,0 l0,-5 l-39.245,-25 l0,-188.2z"/><path d="M730.72,0 l112.32,0 l0,188.2 l70.8739,25 l0,5 l-232.525,0 l0,-5 l49.331,-25 l0,-188.2z"/><path d="M843.04,0 l112.32,0 l0,188.2 l93.102,25 l0,5 l-134.548,0 l0,-5 l-70.874,-25 l0,-188.2z"/><path d="M955.36,0 l112.32,0 l0,188.2 l111.129,25 l0,5 l-130.347,0 l0,-5 l-93.1,-25 l0,-188.2z"/><path d="M1067.68,0 l112.32,0 l0,188.2 l0,25 l0,5 l-1.19059,0 l0,-5 l-111.13,-25 l0,-188.2z"/></g><g class="axes"><g class="x-axis"><g class="title" transform="translate(618.4 250)"><text class="lab" text-anchor="middle" transform="translate(0 -11)">Genome position</text></g><line class="ax-line" x1="56.8" x2="1180" y1="213.2" y2="213.2"/><g class="ticks"><g class="tick" transform="translate(56.8 213.2)"><line x1="0" x2="0" y1="0" y2="5"/><g transform="translate(0 6)"><text class="lab">0</text></g></g><g class="tick" transform="translate(109.197 213.2)"><line x1="0" x2="0" y1="0" y2="5"/><g transform="translate(0 6)"><text class="lab">4665</text></g></g><g class="tick" transform="translate(148.442 213.2)"><line x1="0" x2="0" y1="0" y2="5"/><g transform="translate(0 6)"><text class="lab">8159</text></g></g><g class="tick" transform="translate(486.233 213.2)"><line x1="0" x2="0" y1="0" y2="5"/><g transform="translate(0 6)"><text class="lab">38233</text></g></g><g class="tick" transform="translate(560.948 213.2)"><line x1="0" x2="0" y1="0" y2="5"/><g transform="translate(0 6)"><text class="lab">44885</text></g></g><g class="tick" transform="translate(657.645 213.2)"><line x1="0" x2="0" y1="0" y2="5"/><g transform="translate(0 6)"><text class="lab">53494</text></g></g><g class="tick" transform="translate(681.389 213.2)"><line x1="0" x2="0" y1="0" y2="5"/><g transform="translate(0 6)"><text class="lab">55608</text></g></g><g class="tick" transform="translate(913.914 213.2)"><line x1="0" x2="0" y1="0" y2="5"/><g transform="translate(0 6)"><text class="lab">76310</text></g></g><g class="tick" transform="translate(1048.46 213.2)"><line x1="0" x2="0" y1="0" y2="5"/><g transform="translate(0 6)"><text class="lab">88289</text></g></g><g class="tick" transform="translate(1178.81 213.2)"><line x1="0" x2="0" y1="0" y2="5"/><g transform="translate(0 6)"><text class="lab">99894</text></g></g><g class="tick" transform="translate(1180 213.2)"><line x1="0" x2="0" y1="0" y2="5"/><g transform="translate(0 6)"><text class="lab">100000</text></g></g></g></g><g class="y-axis"><g class="title" transform="translate(0 90.7)"><text class="lab" text-anchor="middle" transform="translate(11) rotate(-90)">Time ago (generations)</text></g><line class="ax-line" x1="56.8" x2="56.8" y1="171.4" y2="10"/><g class="ticks"><g class="tick" transform="translate(56.8 171.4)"><line x1="0" x2="-5" y1="0" y2="0"/><g transform="translate(-6 0)"><text class="lab" text-anchor="end">0.00</text></g></g><g class="tick" transform="translate(56.8 170.266)"><line x1="0" x2="-5" y1="0" y2="0"/><g transform="translate(-6 0)"><text class="lab" text-anchor="end">267.43</text></g></g><g class="tick" transform="translate(56.8 166.84)"><line x1="0" x2="-5" y1="0" y2="0"/><g transform="translate(-6 0)"><text class="lab" text-anchor="end">1074.92</text></g></g><g class="tick" transform="translate(56.8 162.158)"><line x1="0" x2="-5" y1="0" y2="0"/><g transform="translate(-6 0)"><text class="lab" text-anchor="end">2178.53</text></g></g><g class="tick" transform="translate(56.8 150.153)"><line x1="0" x2="-5" y1="0" y2="0"/><g transform="translate(-6 0)"><text class="lab" text-anchor="end">5008.50</text></g></g><g class="tick" transform="translate(56.8 145.585)"><line x1="0" x2="-5" y1="0" y2="0"/><g transform="translate(-6 0)"><text class="lab" text-anchor="end">6085.22</text></g></g><g class="tick" transform="translate(56.8 144.802)"><line x1="0" x2="-5" y1="0" y2="0"/><g transform="translate(-6 0)"><text class="lab" text-anchor="end">6269.79</text></g></g><g class="tick" transform="translate(56.8 144.139)"><line x1="0" x2="-5" y1="0" y2="0"/><g transform="translate(-6 0)"><text class="lab" text-anchor="end">6426.01</text></g></g><g class="tick" transform="translate(56.8 111.713)"><line x1="0" x2="-5" y1="0" y2="0"/><g transform="translate(-6 0)"><text class="lab" text-anchor="end">14069.59</text></g></g><g class="tick" transform="translate(56.8 104.477)"><line x1="0" x2="-5" y1="0" y2="0"/><g transform="translate(-6 0)"><text class="lab" text-anchor="end">15775.49</text></g></g><g class="tick" transform="translate(56.8 71.829)"><line x1="0" x2="-5" y1="0" y2="0"/><g transform="translate(-6 0)"><text class="lab" text-anchor="end">23471.33</text></g></g><g class="tick" transform="translate(56.8 56.3043)"><line x1="0" x2="-5" y1="0" y2="0"/><g transform="translate(-6 0)"><text class="lab" text-anchor="end">27130.90</text></g></g><g class="tick" transform="translate(56.8 26.8)"><line x1="0" x2="-5" y1="0" y2="0"/><g transform="translate(-6 0)"><text class="lab" text-anchor="end">34085.78</text></g></g></g></g></g><g class="plotbox trees"><g class="tree t0" transform="translate(56.8 0)"><g class="plotbox"><g class="c2 node n16 p0 root" transform="translate(67.008 26.8)"><g class="a16 i2 leaf node n2 p0 sample" transform="translate(18.08 144.6)"><path class="edge" d="M 0 0 V -144.6 H -18.08"/><rect class="sym" height="6" width="6" x="-3" y="-3"/><text class="lab" transform="translate(0 11)">2</text></g><g class="a16 c2 node n11 p0" transform="translate(-18.08 117.339)"><g class="a11 c2 node n5 p0" transform="translate(14.464 26.1262)"><g class="a5 i1 leaf node n1 p0 sample" transform="translate(-7.232 1.13449)"><path class="edge" d="M 0 0 V -1.13449 H 7.232"/><rect class="sym" height="6" width="6" x="-3" y="-3"/><text class="lab" transform="translate(0 11)">1</text></g><g class="a5 i4 leaf node n4 p0 sample" transform="translate(7.232 1.13449)"><path class="edge" d="M 0 0 V -1.13449 H -7.232"/><rect class="sym" height="6" width="6" x="-3" y="-3"/><text class="lab" transform="translate(0 11)">4</text></g><path class="edge" d="M 0 0 V -26.1262 H -14.464"/><circle class="sym" cx="0" cy="0" r="3"/><text class="lab rgt" transform="translate(3 -7)">5</text></g><g class="a11 c2 node n6 p0" transform="translate(-14.464 22.7006)"><g class="a6 i0 leaf node n0 p0 sample" transform="translate(-7.232 4.56008)"><path class="edge" d="M 0 0 V -4.56008 H 7.232"/><rect class="sym" height="6" width="6" x="-3" y="-3"/><text class="lab" transform="translate(0 11)">0</text></g><g class="a6 i3 leaf node n3 p0 sample" transform="translate(7.232 4.56008)"><path class="edge" d="M 0 0 V -4.56008 H -7.232"/><rect class="sym" height="6" width="6" x="-3" y="-3"/><text class="lab" transform="translate(0 11)">3</text></g><path class="edge" d="M 0 0 V -22.7006 H 14.464"/><circle class="sym" cx="0" cy="0" r="3"/><text class="lab lft" transform="translate(-3 -7)">6</text></g><path class="edge" d="M 0 0 V -117.339 H 18.08"/><circle class="sym" cx="0" cy="0" r="3"/><text class="lab lft" transform="translate(-3 -7)">11</text></g><circle class="sym" cx="0" cy="0" r="3"/><text class="lab" transform="translate(0 -11)">16</text></g></g></g><g class="tree t1" transform="translate(169.12 0)"><g class="plotbox"><g class="c2 node n15 p0 root" transform="translate(67.008 56.3043)"><g class="a15 i2 leaf node n2 p0 sample" transform="translate(18.08 115.096)"><path class="edge" d="M 0 0 V -115.096 H -18.08"/><rect class="sym" height="6" width="6" x="-3" y="-3"/><text class="lab" transform="translate(0 11)">2</text></g><g class="a15 c2 node n11 p0" transform="translate(-18.08 87.8351)"><g class="a11 c2 node n5 p0" transform="translate(14.464 26.1262)"><g class="a5 i1 leaf node n1 p0 sample" transform="translate(-7.232 1.13449)"><path class="edge" d="M 0 0 V -1.13449 H 7.232"/><rect class="sym" height="6" width="6" x="-3" y="-3"/><text class="lab" transform="translate(0 11)">1</text></g><g class="a5 i4 leaf node n4 p0 sample" transform="translate(7.232 1.13449)"><path class="edge" d="M 0 0 V -1.13449 H -7.232"/><rect class="sym" height="6" width="6" x="-3" y="-3"/><text class="lab" transform="translate(0 11)">4</text></g><path class="edge" d="M 0 0 V -26.1262 H -14.464"/><circle class="sym" cx="0" cy="0" r="3"/><text class="lab rgt" transform="translate(3 -7)">5</text></g><g class="a11 c2 node n6 p0" transform="translate(-14.464 22.7006)"><g class="a6 i0 leaf node n0 p0 sample" transform="translate(-7.232 4.56008)"><path class="edge" d="M 0 0 V -4.56008 H 7.232"/><rect class="sym" height="6" width="6" x="-3" y="-3"/><text class="lab" transform="translate(0 11)">0</text></g><g class="a6 i3 leaf node n3 p0 sample" transform="translate(7.232 4.56008)"><path class="edge" d="M 0 0 V -4.56008 H -7.232"/><rect class="sym" height="6" width="6" x="-3" y="-3"/><text class="lab" transform="translate(0 11)">3</text></g><path class="edge" d="M 0 0 V -22.7006 H 14.464"/><circle class="sym" cx="0" cy="0" r="3"/><text class="lab lft" transform="translate(-3 -7)">6</text></g><path class="edge" d="M 0 0 V -87.8351 H 18.08"/><circle class="sym" cx="0" cy="0" r="3"/><text class="lab lft" transform="translate(-3 -7)">11</text></g><circle class="sym" cx="0" cy="0" r="3"/><text class="lab" transform="translate(0 -11)">15</text></g></g></g><g class="tree t2" transform="translate(281.44 0)"><g class="plotbox"><g class="c2 node n15 p0 root" transform="translate(64.296 56.3043)"><g class="a15 i2 leaf node n2 p0 sample" transform="translate(20.792 115.096)"><path class="edge" d="M 0 0 V -115.096 H -20.792"/><rect class="sym" height="6" width="6" x="-3" y="-3"/><text class="lab" transform="translate(0 11)">2</text></g><g class="a15 c2 node n11 p0" transform="translate(-20.792 87.8351)"><g class="a11 i0 leaf node n0 p0 sample" transform="translate(-16.272 27.2607)"><path class="edge" d="M 0 0 V -27.2607 H 16.272"/><rect class="sym" height="6" width="6" x="-3" y="-3"/><text class="lab" transform="translate(0 11)">0</text></g><g class="a11 c2 node n7 p0" transform="translate(16.272 18.0188)"><g class="a7 i3 leaf node n3 p0 sample" transform="translate(10.848 9.24184)"><path class="edge" d="M 0 0 V -9.24184 H -10.848"/><rect class="sym" height="6" width="6" x="-3" y="-3"/><text class="lab" transform="translate(0 11)">3</text></g><g class="a7 c2 node n5 p0" transform="translate(-10.848 8.10734)"><g class="a5 i1 leaf node n1 p0 sample" transform="translate(-7.232 1.13449)"><path class="edge" d="M 0 0 V -1.13449 H 7.232"/><rect class="sym" height="6" width="6" x="-3" y="-3"/><text class="lab" transform="translate(0 11)">1</text></g><g class="a5 i4 leaf node n4 p0 sample" transform="translate(7.232 1.13449)"><path class="edge" d="M 0 0 V -1.13449 H -7.232"/><rect class="sym" height="6" width="6" x="-3" y="-3"/><text class="lab" transform="translate(0 11)">4</text></g><path class="edge" d="M 0 0 V -8.10734 H 10.848"/><circle class="sym" cx="0" cy="0" r="3"/><text class="lab lft" transform="translate(-3 -7)">5</text></g><path class="edge" d="M 0 0 V -18.0188 H -16.272"/><circle class="sym" cx="0" cy="0" r="3"/><text class="lab rgt" transform="translate(3 -7)">7</text></g><path class="edge" d="M 0 0 V -87.8351 H 20.792"/><circle class="sym" cx="0" cy="0" r="3"/><text class="lab lft" transform="translate(-3 -7)">11</text></g><circle class="sym" cx="0" cy="0" r="3"/><text class="lab" transform="translate(0 -11)">15</text></g></g></g><g class="tree t3" transform="translate(393.76 0)"><g class="plotbox"><g class="c2 node n14 p0 root" transform="translate(64.296 71.829)"><g class="a14 i2 leaf node n2 p0 sample" transform="translate(20.792 99.571)"><path class="edge" d="M 0 0 V -99.571 H -20.792"/><rect class="sym" height="6" width="6" x="-3" y="-3"/><text class="lab" transform="translate(0 11)">2</text></g><g class="a14 c2 node n11 p0" transform="translate(-20.792 72.3103)"><g class="a11 i0 leaf node n0 p0 sample" transform="translate(-16.272 27.2607)"><path class="edge" d="M 0 0 V -27.2607 H 16.272"/><rect class="sym" height="6" width="6" x="-3" y="-3"/><text class="lab" transform="translate(0 11)">0</text></g><g class="a11 c2 node n7 p0" transform="translate(16.272 18.0188)"><g class="a7 i3 leaf node n3 p0 sample" transform="translate(10.848 9.24184)"><path class="edge" d="M 0 0 V -9.24184 H -10.848"/><rect class="sym" height="6" width="6" x="-3" y="-3"/><text class="lab" transform="translate(0 11)">3</text></g><g class="a7 c2 node n5 p0" transform="translate(-10.848 8.10734)"><g class="a5 i1 leaf node n1 p0 sample" transform="translate(-7.232 1.13449)"><path class="edge" d="M 0 0 V -1.13449 H 7.232"/><rect class="sym" height="6" width="6" x="-3" y="-3"/><text class="lab" transform="translate(0 11)">1</text></g><g class="a5 i4 leaf node n4 p0 sample" transform="translate(7.232 1.13449)"><path class="edge" d="M 0 0 V -1.13449 H -7.232"/><rect class="sym" height="6" width="6" x="-3" y="-3"/><text class="lab" transform="translate(0 11)">4</text></g><path class="edge" d="M 0 0 V -8.10734 H 10.848"/><circle class="sym" cx="0" cy="0" r="3"/><text class="lab lft" transform="translate(-3 -7)">5</text></g><path class="edge" d="M 0 0 V -18.0188 H -16.272"/><circle class="sym" cx="0" cy="0" r="3"/><text class="lab rgt" transform="translate(3 -7)">7</text></g><path class="edge" d="M 0 0 V -72.3103 H 20.792"/><circle class="sym" cx="0" cy="0" r="3"/><text class="lab lft" transform="translate(-3 -7)">11</text></g><circle class="sym" cx="0" cy="0" r="3"/><text class="lab" transform="translate(0 -11)">14</text></g></g></g><g class="tree t4" transform="translate(506.08 0)"><g class="plotbox"><g class="c2 node n14 p0 root" transform="translate(64.296 71.829)"><g class="a14 i2 leaf node n2 p0 sample" transform="translate(20.792 99.571)"><path class="edge" d="M 0 0 V -99.571 H -20.792"/><rect class="sym" height="6" width="6" x="-3" y="-3"/><text class="lab" transform="translate(0 11)">2</text></g><g class="a14 c2 node n11 p0" transform="translate(-20.792 72.3103)"><g class="a11 i0 leaf node n0 p0 sample" transform="translate(-16.272 27.2607)"><path class="edge" d="M 0 0 V -27.2607 H 16.272"/><rect class="sym" height="6" width="6" x="-3" y="-3"/><text class="lab" transform="translate(0 11)">0</text></g><g class="a11 c2 node n8 p0" transform="translate(16.272 6.01341)"><g class="a8 i3 leaf node n3 p0 sample" transform="translate(10.848 21.2473)"><path class="edge" d="M 0 0 V -21.2473 H -10.848"/><rect class="sym" height="6" width="6" x="-3" y="-3"/><text class="lab" transform="translate(0 11)">3</text></g><g class="a8 c2 node n5 p0" transform="translate(-10.848 20.1128)"><g class="a5 i1 leaf node n1 p0 sample" transform="translate(-7.232 1.13449)"><path class="edge" d="M 0 0 V -1.13449 H 7.232"/><rect class="sym" height="6" width="6" x="-3" y="-3"/><text class="lab" transform="translate(0 11)">1</text></g><g class="a5 i4 leaf node n4 p0 sample" transform="translate(7.232 1.13449)"><path class="edge" d="M 0 0 V -1.13449 H -7.232"/><rect class="sym" height="6" width="6" x="-3" y="-3"/><text class="lab" transform="translate(0 11)">4</text></g><path class="edge" d="M 0 0 V -20.1128 H 10.848"/><circle class="sym" cx="0" cy="0" r="3"/><text class="lab lft" transform="translate(-3 -7)">5</text></g><path class="edge" d="M 0 0 V -6.01341 H -16.272"/><circle class="sym" cx="0" cy="0" r="3"/><text class="lab rgt" transform="translate(3 -7)">8</text></g><path class="edge" d="M 0 0 V -72.3103 H 20.792"/><circle class="sym" cx="0" cy="0" r="3"/><text class="lab lft" transform="translate(-3 -7)">11</text></g><circle class="sym" cx="0" cy="0" r="3"/><text class="lab" transform="translate(0 -11)">14</text></g></g></g><g class="tree t5" transform="translate(618.4 0)"><g class="plotbox"><g class="c2 node n14 p0 root" transform="translate(64.296 71.829)"><g class="a14 i2 leaf node n2 p0 sample" transform="translate(20.792 99.571)"><path class="edge" d="M 0 0 V -99.571 H -20.792"/><rect class="sym" height="6" width="6" x="-3" y="-3"/><text class="lab" transform="translate(0 11)">2</text></g><g class="a14 c2 node n9 p0" transform="translate(-20.792 73.756)"><g class="a9 i0 leaf node n0 p0 sample" transform="translate(-16.272 25.815)"><path class="edge" d="M 0 0 V -25.815 H 16.272"/><rect class="sym" height="6" width="6" x="-3" y="-3"/><text class="lab" transform="translate(0 11)">0</text></g><g class="a9 c2 node n8 p0" transform="translate(16.272 4.56769)"><g class="a8 i3 leaf node n3 p0 sample" transform="translate(10.848 21.2473)"><path class="edge" d="M 0 0 V -21.2473 H -10.848"/><rect class="sym" height="6" width="6" x="-3" y="-3"/><text class="lab" transform="translate(0 11)">3</text></g><g class="a8 c2 node n5 p0" transform="translate(-10.848 20.1128)"><g class="a5 i1 leaf node n1 p0 sample" transform="translate(-7.232 1.13449)"><path class="edge" d="M 0 0 V -1.13449 H 7.232"/><rect class="sym" height="6" width="6" x="-3" y="-3"/><text class="lab" transform="translate(0 11)">1</text></g><g class="a5 i4 leaf node n4 p0 sample" transform="translate(7.232 1.13449)"><path class="edge" d="M 0 0 V -1.13449 H -7.232"/><rect class="sym" height="6" width="6" x="-3" y="-3"/><text class="lab" transform="translate(0 11)">4</text></g><path class="edge" d="M 0 0 V -20.1128 H 10.848"/><circle class="sym" cx="0" cy="0" r="3"/><text class="lab lft" transform="translate(-3 -7)">5</text></g><path class="edge" d="M 0 0 V -4.56769 H -16.272"/><circle class="sym" cx="0" cy="0" r="3"/><text class="lab rgt" transform="translate(3 -7)">8</text></g><path class="edge" d="M 0 0 V -73.756 H 20.792"/><circle class="sym" cx="0" cy="0" r="3"/><text class="lab lft" transform="translate(-3 -7)">9</text></g><circle class="sym" cx="0" cy="0" r="3"/><text class="lab" transform="translate(0 -11)">14</text></g></g></g><g class="tree t6" transform="translate(730.72 0)"><g class="plotbox"><g class="c2 node n14 p0 root" transform="translate(64.296 71.829)"><g class="a14 i2 leaf node n2 p0 sample" transform="translate(20.792 99.571)"><path class="edge" d="M 0 0 V -99.571 H -20.792"/><rect class="sym" height="6" width="6" x="-3" y="-3"/><text class="lab" transform="translate(0 11)">2</text></g><g class="a14 c2 node n13 p0" transform="translate(-20.792 32.6476)"><g class="a13 i0 leaf node n0 p0 sample" transform="translate(-16.272 66.9234)"><path class="edge" d="M 0 0 V -66.9234 H 16.272"/><rect class="sym" height="6" width="6" x="-3" y="-3"/><text class="lab" transform="translate(0 11)">0</text></g><g class="a13 c2 node n8 p0" transform="translate(16.272 45.6761)"><g class="a8 i3 leaf node n3 p0 sample" transform="translate(10.848 21.2473)"><path class="edge" d="M 0 0 V -21.2473 H -10.848"/><rect class="sym" height="6" width="6" x="-3" y="-3"/><text class="lab" transform="translate(0 11)">3</text></g><g class="a8 c2 node n5 p0" transform="translate(-10.848 20.1128)"><g class="a5 i1 leaf node n1 p0 sample" transform="translate(-7.232 1.13449)"><path class="edge" d="M 0 0 V -1.13449 H 7.232"/><rect class="sym" height="6" width="6" x="-3" y="-3"/><text class="lab" transform="translate(0 11)">1</text></g><g class="a5 i4 leaf node n4 p0 sample" transform="translate(7.232 1.13449)"><path class="edge" d="M 0 0 V -1.13449 H -7.232"/><rect class="sym" height="6" width="6" x="-3" y="-3"/><text class="lab" transform="translate(0 11)">4</text></g><path class="edge" d="M 0 0 V -20.1128 H 10.848"/><circle class="sym" cx="0" cy="0" r="3"/><text class="lab lft" transform="translate(-3 -7)">5</text></g><path class="edge" d="M 0 0 V -45.6761 H -16.272"/><circle class="sym" cx="0" cy="0" r="3"/><text class="lab rgt" transform="translate(3 -7)">8</text></g><path class="edge" d="M 0 0 V -32.6476 H 20.792"/><circle class="sym" cx="0" cy="0" r="3"/><text class="lab lft" transform="translate(-3 -7)">13</text></g><circle class="sym" cx="0" cy="0" r="3"/><text class="lab" transform="translate(0 -11)">14</text></g></g></g><g class="tree t7" transform="translate(843.04 0)"><g class="plotbox"><g class="c2 node n13 p0 root" transform="translate(54.352 104.477)"><g class="a13 c2 node n8 p0" transform="translate(19.888 45.6761)"><g class="a8 i3 leaf node n3 p0 sample" transform="translate(10.848 21.2473)"><path class="edge" d="M 0 0 V -21.2473 H -10.848"/><rect class="sym" height="6" width="6" x="-3" y="-3"/><text class="lab" transform="translate(0 11)">3</text></g><g class="a8 c2 node n5 p0" transform="translate(-10.848 20.1128)"><g class="a5 i1 leaf node n1 p0 sample" transform="translate(-7.232 1.13449)"><path class="edge" d="M 0 0 V -1.13449 H 7.232"/><rect class="sym" height="6" width="6" x="-3" y="-3"/><text class="lab" transform="translate(0 11)">1</text></g><g class="a5 i4 leaf node n4 p0 sample" transform="translate(7.232 1.13449)"><path class="edge" d="M 0 0 V -1.13449 H -7.232"/><rect class="sym" height="6" width="6" x="-3" y="-3"/><text class="lab" transform="translate(0 11)">4</text></g><path class="edge" d="M 0 0 V -20.1128 H 10.848"/><circle class="sym" cx="0" cy="0" r="3"/><text class="lab lft" transform="translate(-3 -7)">5</text></g><path class="edge" d="M 0 0 V -45.6761 H -19.888"/><circle class="sym" cx="0" cy="0" r="3"/><text class="lab rgt" transform="translate(3 -7)">8</text></g><g class="a13 c2 node n10 p0" transform="translate(-19.888 40.3255)"><g class="a10 i0 leaf node n0 p0 sample" transform="translate(-7.232 26.5979)"><path class="edge" d="M 0 0 V -26.5979 H 7.232"/><rect class="sym" height="6" width="6" x="-3" y="-3"/><text class="lab" transform="translate(0 11)">0</text></g><g class="a10 i2 leaf node n2 p0 sample" transform="translate(7.232 26.5979)"><path class="edge" d="M 0 0 V -26.5979 H -7.232"/><rect class="sym" height="6" width="6" x="-3" y="-3"/><text class="lab" transform="translate(0 11)">2</text></g><path class="edge" d="M 0 0 V -40.3255 H 19.888"/><circle class="sym" cx="0" cy="0" r="3"/><text class="lab lft" transform="translate(-3 -7)">10</text></g><circle class="sym" cx="0" cy="0" r="3"/><text class="lab" transform="translate(0 -11)">13</text></g></g></g><g class="tree t8" transform="translate(955.36 0)"><g class="plotbox"><g class="c2 node n16 p0 root" transform="translate(54.352 26.8)"><g class="a16 c2 node n8 p0" transform="translate(19.888 123.353)"><g class="a8 i3 leaf node n3 p0 sample" transform="translate(10.848 21.2473)"><path class="edge" d="M 0 0 V -21.2473 H -10.848"/><rect class="sym" height="6" width="6" x="-3" y="-3"/><text class="lab" transform="translate(0 11)">3</text></g><g class="a8 c2 node n5 p0" transform="translate(-10.848 20.1128)"><g class="a5 i1 leaf node n1 p0 sample" transform="translate(-7.232 1.13449)"><path class="edge" d="M 0 0 V -1.13449 H 7.232"/><rect class="sym" height="6" width="6" x="-3" y="-3"/><text class="lab" transform="translate(0 11)">1</text></g><g class="a5 i4 leaf node n4 p0 sample" transform="translate(7.232 1.13449)"><path class="edge" d="M 0 0 V -1.13449 H -7.232"/><rect class="sym" height="6" width="6" x="-3" y="-3"/><text class="lab" transform="translate(0 11)">4</text></g><path class="edge" d="M 0 0 V -20.1128 H 10.848"/><circle class="sym" cx="0" cy="0" r="3"/><text class="lab lft" transform="translate(-3 -7)">5</text></g><path class="edge" d="M 0 0 V -123.353 H -19.888"/><circle class="sym" cx="0" cy="0" r="3"/><text class="lab rgt" transform="translate(3 -7)">8</text></g><g class="a16 c2 node n10 p0" transform="translate(-19.888 118.002)"><g class="a10 i0 leaf node n0 p0 sample" transform="translate(-7.232 26.5979)"><path class="edge" d="M 0 0 V -26.5979 H 7.232"/><rect class="sym" height="6" width="6" x="-3" y="-3"/><text class="lab" transform="translate(0 11)">0</text></g><g class="a10 i2 leaf node n2 p0 sample" transform="translate(7.232 26.5979)"><path class="edge" d="M 0 0 V -26.5979 H -7.232"/><rect class="sym" height="6" width="6" x="-3" y="-3"/><text class="lab" transform="translate(0 11)">2</text></g><path class="edge" d="M 0 0 V -118.002 H 19.888"/><circle class="sym" cx="0" cy="0" r="3"/><text class="lab lft" transform="translate(-3 -7)">10</text></g><circle class="sym" cx="0" cy="0" r="3"/><text class="lab" transform="translate(0 -11)">16</text></g></g></g><g class="tree t9" transform="translate(1067.68 0)"><g class="plotbox"><g class="c2 node n12 p0 root" transform="translate(54.352 111.713)"><g class="a12 c2 node n8 p0" transform="translate(19.888 38.4393)"><g class="a8 i3 leaf node n3 p0 sample" transform="translate(10.848 21.2473)"><path class="edge" d="M 0 0 V -21.2473 H -10.848"/><rect class="sym" height="6" width="6" x="-3" y="-3"/><text class="lab" transform="translate(0 11)">3</text></g><g class="a8 c2 node n5 p0" transform="translate(-10.848 20.1128)"><g class="a5 i1 leaf node n1 p0 sample" transform="translate(-7.232 1.13449)"><path class="edge" d="M 0 0 V -1.13449 H 7.232"/><rect class="sym" height="6" width="6" x="-3" y="-3"/><text class="lab" transform="translate(0 11)">1</text></g><g class="a5 i4 leaf node n4 p0 sample" transform="translate(7.232 1.13449)"><path class="edge" d="M 0 0 V -1.13449 H -7.232"/><rect class="sym" height="6" width="6" x="-3" y="-3"/><text class="lab" transform="translate(0 11)">4</text></g><path class="edge" d="M 0 0 V -20.1128 H 10.848"/><circle class="sym" cx="0" cy="0" r="3"/><text class="lab lft" transform="translate(-3 -7)">5</text></g><path class="edge" d="M 0 0 V -38.4393 H -19.888"/><circle class="sym" cx="0" cy="0" r="3"/><text class="lab rgt" transform="translate(3 -7)">8</text></g><g class="a12 c2 node n10 p0" transform="translate(-19.888 33.0886)"><g class="a10 i0 leaf node n0 p0 sample" transform="translate(-7.232 26.5979)"><path class="edge" d="M 0 0 V -26.5979 H 7.232"/><rect class="sym" height="6" width="6" x="-3" y="-3"/><text class="lab" transform="translate(0 11)">0</text></g><g class="a10 i2 leaf node n2 p0 sample" transform="translate(7.232 26.5979)"><path class="edge" d="M 0 0 V -26.5979 H -7.232"/><rect class="sym" height="6" width="6" x="-3" y="-3"/><text class="lab" transform="translate(0 11)">2</text></g><path class="edge" d="M 0 0 V -33.0886 H 19.888"/><circle class="sym" cx="0" cy="0" r="3"/><text class="lab lft" transform="translate(-3 -7)">10</text></g><circle class="sym" cx="0" cy="0" r="3"/><text class="lab" transform="translate(0 -11)">12</text></g></g></g></g></g></svg>