<svg baseProfile="full" height="250" id="myUID" version="1.1" width="1400" xmlns="http://www.w3.org/2000/svg" xmlns:ev="http://www.w3.org/2001/xml-events" xmlns:xlink="http://www.w3.org/1999/xlink"><defs><style type="text/css"><![CDATA[.background path {fill: #808080; fill-opacity: 0}.background path:nth-child(odd) {fill-opacity: .1}.x-regions rect {fill: yellow; stroke: black; opacity: 0.5}.axes {font-size: 14px}.x-axis .tick .lab {font-weight: bold; dominant-baseline: hanging}.axes, .tree {font-size: 14px; text-anchor: middle}.axes line, .edge {stroke: black; fill: none}.axes .ax-skip {stroke-dasharray: 4}.y-axis .grid {stroke: #FAFAFA}.node > .sym {fill: black; stroke: none}.site > .sym {stroke: black}.mut text {fill: red; font-style: italic}.mut.extra text {fill: hotpink}.mut line {fill: none; stroke: none}.mut .sym {fill: none; stroke: red}.mut.extra .sym {stroke: hotpink}.node .mut .sym {stroke-width: 1.5px}.tree text, .tree-sequence text {dominant-baseline: central}.plotbox .lab.lft {text-anchor: end}.plotbox .lab.rgt {text-anchor: start}.polytomy line {stroke: black; stroke-dasharray: 1px, 1px}.polytomy text {paint-order:stroke;stroke-width:0.3em;stroke:white}
.node:not(.leaf) > .sym, .node:not(.leaf) > .lab {display: none}
#myUID .background * {fill: #FF6666}
.edge {stroke: darkred; stroke-width: 4px;}
]]></style></defs><g class="tree-sequence"><g class="background"><path d="M56.8,0 l280.8,0 l0,188.2 l-184.542,25 l0,5 l-96.2582,0 l0,-5 l0,-25 l0,-188.2z"/><path d="M337.6,0 l280.8,0 l0,188.2 l302.253,25 l0,5 l-767.595,0 l0,-5 l184.542,-25 l0,-188.2z"/><path d="M618.4,0 l280.8,0 l0,188.2 l48.2976,25 l0,5 l-26.8445,0 l0,-5 l-302.253,-25 l0,-188.2z"/><path d="M899.2,0 l280.8,0 l0,188.2 l0,25 l0,5 l-232.502,0 l0,-5 l-48.298,-25 l0,-188.2z"/></g><g class="axes"><g class="x-axis"><g class="title" transform="translate(618.4 250)"><text class="lab" text-anchor="middle" transform="translate(0 -11)">Genome position</text></g><line class="ax-line" x1="56.8" x2="1180" y1="213.2" y2="213.2"/><g class="ticks"><g class="tick" transform="translate(56.8 213.2)"><line x1="0" x2="0" y1="0" y2="5"/><g transform="translate(0 6)"><text class="lab">0</text></g></g><g class="tick" transform="translate(153.058 213.2)"><line x1="0" x2="0" y1="0" y2="5"/><g transform="translate(0 6)"><text class="lab">857</text></g></g><g class="tick" transform="translate(920.653 213.2)"><line x1="0" x2="0" y1="0" y2="5"/><g transform="translate(0 6)"><text class="lab">7691</text></g></g><g class="tick" transform="translate(947.498 213.2)"><line x1="0" x2="0" y1="0" y2="5"/><g transform="translate(0 6)"><text class="lab">7930</text></g></g><g class="tick" transform="translate(1180 213.2)"><line x1="0" x2="0" y1="0" y2="5"/><g transform="translate(0 6)"><text class="lab">10000</text></g></g></g></g><g class="y-axis"><g class="title" transform="translate(0 90.7)"><text class="lab" text-anchor="middle" transform="translate(11) rotate(-90)">Time ago (generations)</text></g><line class="ax-line" x1="56.8" x2="56.8" y1="171.4" y2="10"/><g class="ticks"><g class="tick" transform="translate(56.8 171.4)"><line x1="0" x2="-5" y1="0" y2="0"/><g transform="translate(-6 0)"><text class="lab" text-anchor="end">0.00</text></g></g><g class="tick" transform="translate(56.8 147.855)"><line x1="0" x2="-5" y1="0" y2="0"/><g transform="translate(-6 0)"><text class="lab" text-anchor="end">33.40</text></g></g><g class="tick" transform="translate(56.8 145.635)"><line x1="0" x2="-5" y1="0" y2="0"/><g transform="translate(-6 0)"><text class="lab" text-anchor="end">36.55</text></g></g><g class="tick" transform="translate(56.8 127.948)"><line x1="0" x2="-5" y1="0" y2="0"/><g transform="translate(-6 0)"><text class="lab" text-anchor="end">61.64</text></g></g><g class="tick" transform="translate(56.8 111.439)"><line x1="0" x2="-5" y1="0" y2="0"/><g transform="translate(-6 0)"><text class="lab" text-anchor="end">85.05</text></g></g><g class="tick" transform="translate(56.8 98.1204)"><line x1="0" x2="-5" y1="0" y2="0"/><g transform="translate(-6 0)"><text class="lab" text-anchor="end">103.95</text></g></g><g class="tick" transform="translate(56.8 86.1345)"><line x1="0" x2="-5" y1="0" y2="0"/><g transform="translate(-6 0)"><text class="lab" text-anchor="end">120.95</text></g></g><g class="tick" transform="translate(56.8 26.8)"><line x1="0" x2="-5" y1="0" y2="0"/><g transform="translate(-6 0)"><text class="lab" text-anchor="end">205.11</text></g></g></g></g></g><g class="plotbox trees"><g class="tree t0" transform="translate(56.8 0)"><g class="plotbox"><g class="c2 node n11 p0 root" transform="translate(104.28 26.8)"><g class="a11 i0 leaf node n0 p0 sample" transform="translate(-60.2 144.6)"><path class="edge" d="M 0 0 V -144.6 H 60.2"/><rect class="sym" height="6" width="6" x="-3" y="-3"/><text class="lab" transform="translate(0 11)">0</text></g><g class="a11 c2 node n7 p0" transform="translate(60.2 101.148)"><g class="a7 c2 node n5 p0" transform="translate(-48.16 19.9075)"><g class="a5 i1 leaf node n1 p0 sample" transform="translate(-24.08 23.5445)"><path class="edge" d="M 0 0 V -23.5445 H 24.08"/><rect class="sym" height="6" width="6" x="-3" y="-3"/><text class="lab" transform="translate(0 11)">1</text></g><g class="a5 i4 leaf node n4 p0 sample" transform="translate(24.08 23.5445)"><path class="edge" d="M 0 0 V -23.5445 H -24.08"/><rect class="sym" height="6" width="6" x="-3" y="-3"/><text class="lab" transform="translate(0 11)">4</text></g><path class="edge" d="M 0 0 V -19.9075 H 48.16"/><circle class="sym" cx="0" cy="0" r="3"/><text class="lab lft" transform="translate(-3 -7)">5</text></g><g class="a7 c2 node n6 p0" transform="translate(48.16 17.6867)"><g class="a6 i2 leaf node n2 p0 sample" transform="translate(-24.08 25.7653)"><path class="edge" d="M 0 0 V -25.7653 H 24.08"/><rect class="sym" height="6" width="6" x="-3" y="-3"/><text class="lab" transform="translate(0 11)">2</text></g><g class="a6 i3 leaf node n3 p0 sample" transform="translate(24.08 25.7653)"><path class="edge" d="M 0 0 V -25.7653 H -24.08"/><rect class="sym" height="6" width="6" x="-3" y="-3"/><text class="lab" transform="translate(0 11)">3</text></g><path class="edge" d="M 0 0 V -17.6867 H -48.16"/><circle class="sym" cx="0" cy="0" r="3"/><text class="lab rgt" transform="translate(3 -7)">6</text></g><path class="edge" d="M 0 0 V -101.148 H -60.2"/><circle class="sym" cx="0" cy="0" r="3"/><text class="lab rgt" transform="translate(3 -7)">7</text></g><circle class="sym" cx="0" cy="0" r="3"/><text class="lab" transform="translate(0 -11)">11</text></g></g></g><g class="tree t1" transform="translate(337.6 0)"><g class="plotbox"><g class="c2 node n10 p0 root" transform="translate(104.28 86.1345)"><g class="a10 i0 leaf node n0 p0 sample" transform="translate(-60.2 85.2655)"><path class="edge" d="M 0 0 V -85.2655 H 60.2"/><rect class="sym" height="6" width="6" x="-3" y="-3"/><text class="lab" transform="translate(0 11)">0</text></g><g class="a10 c2 node n7 p0" transform="translate(60.2 41.8134)"><g class="a7 c2 node n5 p0" transform="translate(-48.16 19.9075)"><g class="a5 i1 leaf node n1 p0 sample" transform="translate(-24.08 23.5445)"><path class="edge" d="M 0 0 V -23.5445 H 24.08"/><rect class="sym" height="6" width="6" x="-3" y="-3"/><text class="lab" transform="translate(0 11)">1</text></g><g class="a5 i4 leaf node n4 p0 sample" transform="translate(24.08 23.5445)"><path class="edge" d="M 0 0 V -23.5445 H -24.08"/><rect class="sym" height="6" width="6" x="-3" y="-3"/><text class="lab" transform="translate(0 11)">4</text></g><path class="edge" d="M 0 0 V -19.9075 H 48.16"/><circle class="sym" cx="0" cy="0" r="3"/><text class="lab lft" transform="translate(-3 -7)">5</text></g><g class="a7 c2 node n6 p0" transform="translate(48.16 17.6867)"><g class="a6 i2 leaf node n2 p0 sample" transform="translate(-24.08 25.7653)"><path class="edge" d="M 0 0 V -25.7653 H 24.08"/><rect class="sym" height="6" width="6" x="-3" y="-3"/><text class="lab" transform="translate(0 11)">2</text></g><g class="a6 i3 leaf node n3 p0 sample" transform="translate(24.08 25.7653)"><path class="edge" d="M 0 0 V -25.7653 H -24.08"/><rect class="sym" height="6" width="6" x="-3" y="-3"/><text class="lab" transform="translate(0 11)">3</text></g><path class="edge" d="M 0 0 V -17.6867 H -48.16"/><circle class="sym" cx="0" cy="0" r="3"/><text class="lab rgt" transform="translate(3 -7)">6</text></g><path class="edge" d="M 0 0 V -41.8134 H -60.2"/><circle class="sym" cx="0" cy="0" r="3"/><text class="lab rgt" transform="translate(3 -7)">7</text></g><circle class="sym" cx="0" cy="0" r="3"/><text class="lab" transform="translate(0 -11)">10</text></g></g></g><g class="tree t2" transform="translate(618.4 0)"><g class="plotbox"><g class="c2 node n10 p0 root" transform="translate(146.42 86.1345)"><g class="a10 c2 node n5 p0" transform="translate(66.22 61.7209)"><g class="a5 i1 leaf node n1 p0 sample" transform="translate(-24.08 23.5445)"><path class="edge" d="M 0 0 V -23.5445 H 24.08"/><rect class="sym" height="6" width="6" x="-3" y="-3"/><text class="lab" transform="translate(0 11)">1</text></g><g class="a5 i4 leaf node n4 p0 sample" transform="translate(24.08 23.5445)"><path class="edge" d="M 0 0 V -23.5445 H -24.08"/><rect class="sym" height="6" width="6" x="-3" y="-3"/><text class="lab" transform="translate(0 11)">4</text></g><path class="edge" d="M 0 0 V -61.7209 H -66.22"/><circle class="sym" cx="0" cy="0" r="3"/><text class="lab rgt" transform="translate(3 -7)">5</text></g><g class="a10 c2 node n9 p0" transform="translate(-66.22 11.9859)"><g class="a9 i0 leaf node n0 p0 sample" transform="translate(-36.12 73.2796)"><path class="edge" d="M 0 0 V -73.2796 H 36.12"/><rect class="sym" height="6" width="6" x="-3" y="-3"/><text class="lab" transform="translate(0 11)">0</text></g><g class="a9 c2 node n6 p0" transform="translate(36.12 47.5143)"><g class="a6 i2 leaf node n2 p0 sample" transform="translate(-24.08 25.7653)"><path class="edge" d="M 0 0 V -25.7653 H 24.08"/><rect class="sym" height="6" width="6" x="-3" y="-3"/><text class="lab" transform="translate(0 11)">2</text></g><g class="a6 i3 leaf node n3 p0 sample" transform="translate(24.08 25.7653)"><path class="edge" d="M 0 0 V -25.7653 H -24.08"/><rect class="sym" height="6" width="6" x="-3" y="-3"/><text class="lab" transform="translate(0 11)">3</text></g><path class="edge" d="M 0 0 V -47.5143 H -36.12"/><circle class="sym" cx="0" cy="0" r="3"/><text class="lab rgt" transform="translate(3 -7)">6</text></g><path class="edge" d="M 0 0 V -11.9859 H 66.22"/><circle class="sym" cx="0" cy="0" r="3"/><text class="lab lft" transform="translate(-3 -7)">9</text></g><circle class="sym" cx="0" cy="0" r="3"/><text class="lab" transform="translate(0 -11)">10</text></g></g></g><g class="tree t3" transform="translate(899.2 0)"><g class="plotbox"><g class="c2 node n10 p0 root" transform="translate(146.42 86.1345)"><g class="a10 c2 node n6 p0" transform="translate(66.22 59.5001)"><g class="a6 i2 leaf node n2 p0 sample" transform="translate(-24.08 25.7653)"><path class="edge" d="M 0 0 V -25.7653 H 24.08"/><rect class="sym" height="6" width="6" x="-3" y="-3"/><text class="lab" transform="translate(0 11)">2</text></g><g class="a6 i3 leaf node n3 p0 sample" transform="translate(24.08 25.7653)"><path class="edge" d="M 0 0 V -25.7653 H -24.08"/><rect class="sym" height="6" width="6" x="-3" y="-3"/><text class="lab" transform="translate(0 11)">3</text></g><path class="edge" d="M 0 0 V -59.5001 H -66.22"/><circle class="sym" cx="0" cy="0" r="3"/><text class="lab rgt" transform="translate(3 -7)">6</text></g><g class="a10 c2 node n8 p0" transform="translate(-66.22 25.3048)"><g class="a8 i0 leaf node n0 p0 sample" transform="translate(-36.12 59.9606)"><path class="edge" d="M 0 0 V -59.9606 H 36.12"/><rect class="sym" height="6" width="6" x="-3" y="-3"/><text class="lab" transform="translate(0 11)">0</text></g><g class="a8 c2 node n5 p0" transform="translate(36.12 36.4161)"><g class="a5 i1 leaf node n1 p0 sample" transform="translate(-24.08 23.5445)"><path class="edge" d="M 0 0 V -23.5445 H 24.08"/><rect class="sym" height="6" width="6" x="-3" y="-3"/><text class="lab" transform="translate(0 11)">1</text></g><g class="a5 i4 leaf node n4 p0 sample" transform="translate(24.08 23.5445)"><path class="edge" d="M 0 0 V -23.5445 H -24.08"/><rect class="sym" height="6" width="6" x="-3" y="-3"/><text class="lab" transform="translate(0 11)">4</text></g><path class="edge" d="M 0 0 V -36.4161 H -36.12"/><circle class="sym" cx="0" cy="0" r="3"/><text class="lab rgt" transform="translate(3 -7)">5</text></g><path class="edge" d="M 0 0 V -25.3048 H 66.22"/><circle class="sym" cx="0" cy="0" r="3"/><text class="lab lft" transform="translate(-3 -7)">8</text></g><circle class="sym" cx="0" cy="0" r="3"/><text class="lab" transform="translate(0 -11)">10</text></g></g></g></g></g></svg>